<svg width="24" height="25" viewBox="0 0 24 25" fill="none" xmlns="http://www.w3.org/2000/svg">
<g clip-path="url(#clip0_2001_52)">
<path d="M12.286 20.4501L19.8797 12.8563C21.7453 10.9813 22.0172 7.91572 20.2547 5.95635C19.8127 5.46257 19.2746 5.06411 18.6734 4.7853C18.0722 4.50649 17.4205 4.35319 16.758 4.33476C16.0956 4.31634 15.4363 4.43317 14.8205 4.67813C14.2047 4.92309 13.6454 5.29103 13.1766 5.75947L11.7516 7.19385L10.5235 5.95635C8.64847 4.09072 5.58284 3.81885 3.62347 5.58135C3.1297 6.02336 2.73123 6.56142 2.45242 7.16263C2.17361 7.76384 2.02031 8.41558 2.00188 9.07804C1.98346 9.7405 2.1003 10.3998 2.34526 11.0155C2.59022 11.6313 2.95816 12.1907 3.42659 12.6595L11.2172 20.4501C11.3594 20.5909 11.5515 20.6699 11.7516 20.6699C11.9517 20.6699 12.1438 20.5909 12.286 20.4501V20.4501Z" stroke="#131313" stroke-width="1.5" stroke-linecap="round" stroke-linejoin="round"/>
</g>
<defs>
<clipPath id="clip0_2001_52">
<rect width="24" height="24" fill="white" transform="translate(0 0.332876)"/>
</clipPath>
</defs>
</svg>
